# xmcd
#
# Track frame offsets:
#	150
#	11008
#	25804
#	36691
#	46752
#	61972
#	74004
#	91966
#	105613
#	118427
#	127662
#	141806
#	155150
#	168459
#	174077
#	189744
#
# Disc length: 2676 seconds
#
# Revision: 2
# Processed by: cddbd v1.5.2PL0 Copyright (c) Steve Scherf et al.
# Submitted via: audiograbber 1.83.01
#
DISCID=e10a7210
DTITLE=Marschmusik - CD3
DYEAR=2001
DGENRE=Military Music
TTITLE0=Das grosse Teutonia Blasorchester - Waidmanns Heil
TTITLE1=Das grosse Teutonia Blasorchester - Horridoh
TTITLE2=Das Blasorchester Theo Heinz - Karlsruher Schuetzenmarsch
TTITLE3=Blasorchester der Stadt Langenhagen - Hannoverscher Koenigsgruss
TTITLE4=Das Norddeutsche Blasorchester - Jorker Schuetzenmarsch
TTITLE5=Musikzug SG Anspach - Liebesboten Marsch
TTITLE6=Der Grosse Spielmannszug Bad Hersfeld - Schwabengruss
TTITLE7=Das grosse Teutonia Blasorchester - Hoch Heidecksburg
TTITLE8=Das Grosse Berliner Blasorchester - Auf zur Jagdt
TTITLE9=Musikzug SG Anspach - Mit Sang und Klang
TTITLE10=Blasmusik Egerland - Toelzer Schuetzenmarsch
TTITLE11=Das Grosse Berliner Blasorchester - Rattenfaenger-Marsch
TTITLE12=Musikzug SG Anspach - Vereinsklaenge
TTITLE13=Das Hornquartett Streuber - Jaegermarsch I und II
TTITLE14=Das Norddeutsche Blasorchester - Heimatgruesse
TTITLE15=Blasorchester der Stadt Langenhagen - Steuben-Parade
EXTD=ZYX Music, LC6350
EXTT0=
EXTT1=
EXTT2=
EXTT3=
EXTT4=
EXTT5=
EXTT6=
EXTT7=
EXTT8=
EXTT9=
EXTT10=
EXTT11=
EXTT12=
EXTT13=
EXTT14=
EXTT15=
PLAYORDER=
